<svg xmlns="http://www.w3.org/2000/svg" width="640" height="220" viewBox="0 0 640 220" role="img" aria-labelledby="title desc">
  <title id="title">Account security dashboard illustration</title>
  <desc id="desc">A security dashboard with shield and sign-in activity cards.</desc>
  <rect width="640" height="220" fill="#e8f2ff"/>
  <rect x="42" y="38" width="278" height="144" rx="8" fill="#ffffff" stroke="#b9cce5"/>
  <rect x="66" y="62" width="96" height="14" rx="3" fill="#2368d1"/>
  <rect x="66" y="92" width="220" height="10" rx="3" fill="#d9e2ec"/>
  <rect x="66" y="116" width="176" height="10" rx="3" fill="#d9e2ec"/>
  <rect x="66" y="140" width="132" height="10" rx="3" fill="#d9e2ec"/>
  <path d="M440 42l82 30v56c0 44-31 70-82 90-51-20-82-46-82-90V72z" fill="#142033"/>
  <path d="M440 70l48 18v35c0 25-18 43-48 56-30-13-48-31-48-56V88z" fill="#2bbf8a"/>
  <path d="M420 121l22 21 47-56" fill="none" stroke="#ffffff" stroke-width="12" stroke-linecap="round" stroke-linejoin="round"/>
</svg>
